# xmcd
#
# Track frame offsets: 
#        150
#        20918
#        46632
#        66379
#        88478
#        107431
#        125031
#        146268
#        170881
#        189143
#        205308
#        230949
#
# Disc length: 3329 seconds
#
# Revision: 2
# Processed by: cddbd v1.5.2PL0 Copyright (c) Steve Scherf et al.
# Submitted via: ExactAudioCopyFreeDBPlugin 1.0
#
DISCID=b30cff0c
DTITLE=曼麗 Money - 女人三十
DYEAR=2013
DGENRE=Pop
TTITLE0=是雨是涙
TTITLE1=風繼續吹
TTITLE2=破曉時分
TTITLE3=那有一天不想你
TTITLE4=纒綿游戲
TTITLE5=回旋木馬的終端
TTITLE6=償還
TTITLE7=橫濱別戀
TTITLE8=零時十分
TTITLE9=禁色
TTITLE10=情深緣淺
TTITLE11=愛下去
EXTD=
EXTT0=
EXTT1=
EXTT2=
EXTT3=
EXTT4=
EXTT5=
EXTT6=
EXTT7=
EXTT8=
EXTT9=
EXTT10=
EXTT11=
PLAYORDER=
